<svg width="0" height="0" class="hidden"><symbol xmlns="http://www.w3.org/2000/svg" xmlns:xlink="http://www.w3.org/1999/xlink" viewBox="0 0 26 32" id="icon-logo"><defs><path id="a" d="M138.805 90h-19.61c-1.762 0-3.195-1.419-3.195-3.163V65.439c0-.135.033-.267.097-.386l3.544-6.616a.833.833 0 0 1 .735-.438h17.248c.308 0 .59.168.735.438l3.544 6.616a.818.818 0 0 1 .097.386v21.398c0 1.744-1.433 3.164-3.195 3.164zm-1.682-30.353h-16.246l-2.738 5.112h21.722zm3.213 6.76h-22.672v4.157h22.672zm0 5.805h-22.672v4.272h22.672zm0 5.92h-22.672v4.3h22.672zm0 5.948h-22.672v2.757c0 .835.687 1.515 1.53 1.515h19.611c.844 0 1.53-.68 1.53-1.515zm-2.674 2.89a.71.71 0 0 1-.712-.705.71.71 0 0 1 .712-.705c.393 0 .712.316.712.705a.71.71 0 0 1-.712.705zm0-.86a.156.156 0 0 0-.157.155c0 .085.07.155.157.155s.157-.07.157-.155a.156.156 0 0 0-.157-.156zm-2.716.86a.709.709 0 0 1-.711-.705c0-.389.319-.705.711-.705a.71.71 0 0 1 .712.705.71.71 0 0 1-.712.705zm0-.86a.156.156 0 0 0-.157.155c0 .085.07.155.157.155s.157-.07.157-.155a.156.156 0 0 0-.157-.156zm-2.751.86a.709.709 0 0 1-.711-.705c0-.389.319-.705.711-.705.393 0 .712.316.712.705a.71.71 0 0 1-.712.705zm0-.86a.156.156 0 0 0-.157.155.157.157 0 1 0 .314 0 .156.156 0 0 0-.157-.156zm-12.134 1.86a1.715 1.715 0 0 1-1.721-1.705c0-.94.772-1.705 1.721-1.705.95 0 1.721.765 1.721 1.705 0 .94-.772 1.704-1.72 1.704zm0-2.586a.886.886 0 0 0-.889.88c0 .486.399.881.89.881.49 0 .888-.395.888-.88a.886.886 0 0 0-.889-.88zm0-6.926c.95 0 1.721.765 1.721 1.705 0 .94-.772 1.704-1.72 1.704a1.715 1.715 0 0 1-1.722-1.704c0-.94.772-1.705 1.721-1.705zm0 2.585c.49 0 .889-.395.889-.88a.886.886 0 0 0-.889-.88.886.886 0 0 0-.889.88c0 .485.399.88.89.88zm12.134-1.585c.393 0 .712.316.712.705a.71.71 0 0 1-.712.705.709.709 0 0 1-.711-.705c0-.389.319-.705.711-.705zm0 .86c.086 0 .157-.07.157-.155a.156.156 0 0 0-.157-.156.156.156 0 0 0-.157.156c0 .086.07.155.157.155zm2.751-.86a.71.71 0 0 1 .712.705.71.71 0 0 1-.712.705.709.709 0 0 1-.711-.705c0-.389.319-.705.711-.705zm0 .86c.087 0 .157-.07.157-.155a.156.156 0 0 0-.157-.156.156.156 0 0 0-.157.156c0 .086.07.155.157.155zm2.716-.86c.393 0 .712.316.712.705a.71.71 0 0 1-.712.705.71.71 0 0 1-.712-.705.71.71 0 0 1 .712-.705zm0 .86c.087 0 .157-.07.157-.155a.156.156 0 0 0-.157-.156.156.156 0 0 0-.157.156c0 .086.07.155.157.155zm-17.6-7.621c.948 0 1.72.765 1.72 1.705 0 .94-.772 1.704-1.72 1.704a1.715 1.715 0 0 1-1.722-1.704c0-.94.772-1.705 1.721-1.705zm0 2.585c.49 0 .888-.395.888-.88a.886.886 0 0 0-.889-.88.886.886 0 0 0-.889.88c0 .485.399.88.89.88zm12.133-1.585c.393 0 .712.316.712.705a.71.71 0 0 1-.712.704.709.709 0 0 1-.711-.704c0-.39.319-.705.711-.705zm0 .86c.086 0 .157-.07.157-.155a.156.156 0 0 0-.157-.156.156.156 0 0 0-.157.156c0 .085.07.155.157.155zm2.751-.86a.71.71 0 0 1 .712.705.71.71 0 0 1-.712.704.709.709 0 0 1-.711-.704c0-.39.319-.705.711-.705zm0 .86c.087 0 .157-.07.157-.155a.156.156 0 0 0-.157-.156.156.156 0 0 0-.157.156c0 .085.07.155.157.155zm2.716-.86c.393 0 .712.316.712.705a.71.71 0 0 1-.712.704.71.71 0 0 1-.712-.704c0-.39.32-.705.712-.705zm0 .86c.087 0 .157-.07.157-.155a.156.156 0 0 0-.157-.156.156.156 0 0 0-.157.156c0 .085.07.155.157.155zm-17.6-7.728c.948 0 1.72.764 1.72 1.704s-.772 1.705-1.72 1.705a1.715 1.715 0 0 1-1.722-1.705c0-.94.772-1.704 1.721-1.704zm0 2.585c.49 0 .888-.395.888-.88a.886.886 0 0 0-.889-.881.886.886 0 0 0-.889.88c0 .486.399.88.89.88zm12.133-1.585c.393 0 .712.316.712.704 0 .39-.32.705-.712.705a.709.709 0 0 1-.711-.705c0-.388.319-.704.711-.704zm0 .86c.086 0 .157-.07.157-.156a.156.156 0 0 0-.157-.155.156.156 0 0 0-.157.155c0 .086.07.156.157.156zm2.751-.86a.71.71 0 0 1 .712.704c0 .39-.32.705-.712.705a.709.709 0 0 1-.711-.705c0-.388.319-.704.711-.704zm0 .86c.087 0 .157-.07.157-.156a.156.156 0 0 0-.157-.155.156.156 0 0 0-.157.155c0 .086.07.156.157.156zm2.716-.86c.393 0 .712.316.712.704 0 .39-.32.705-.712.705a.71.71 0 0 1-.712-.705.71.71 0 0 1 .712-.704zm0 .86c.087 0 .157-.07.157-.156a.156.156 0 0 0-.157-.155.156.156 0 0 0-.157.155c0 .086.07.156.157.156z"/><clipPath id="b"><use fill="#fff" xlink:href="#a"/></clipPath></defs><use fill="#fff" fill-opacity="0" stroke="#202242" stroke-miterlimit="50" stroke-width="5.3" clip-path="url(&amp;quot;#b&amp;quot;)" xlink:href="#a" transform="translate(-116 -58)"/></symbol><symbol xmlns="http://www.w3.org/2000/svg" xmlns:xlink="http://www.w3.org/1999/xlink" viewBox="0 0 168 169" id="icon-server"><defs><path id="a" d="M462.96 1189.868h-61.648v30.518h39.308a2.31 2.31 0 0 1 2.312 2.309 2.31 2.31 0 0 1-2.312 2.308h-83.24a2.31 2.31 0 0 1-2.312-2.308 2.31 2.31 0 0 1 2.312-2.309h39.308v-30.518H335.04c-11.048 0-20.036-8.973-20.036-20.004V1107.2c0-.171.01-.34.029-.507.005-.043.014-.085.02-.129.017-.124.037-.248.064-.37.011-.05.026-.098.038-.148a4.63 4.63 0 0 1 .156-.49c.04-.107.085-.21.134-.313.014-.03.024-.062.039-.093l23.118-46.586a4.626 4.626 0 0 1 4.144-2.567h112.508c1.758 0 3.363.995 4.144 2.567l23.118 46.586c.015.03.025.062.04.093a4.579 4.579 0 0 1 .289.803c.012.05.027.099.038.148.027.122.047.246.064.37.006.043.015.086.02.13.018.166.03.335.03.506v62.664c0 11.03-8.99 20.004-20.037 20.004zm-10.574-124.638H345.614l-18.536 37.354h143.844zm21.363 46.586H324.25v29.882h149.5zm0 39.114H324.25v18.934c0 5.94 4.84 10.771 10.789 10.771h127.92c5.949 0 10.789-4.832 10.789-10.771zm-18.245 19.54a4.376 4.376 0 0 1-4.374-4.367 4.376 4.376 0 0 1 4.374-4.368 4.376 4.376 0 0 1 4.374 4.368 4.376 4.376 0 0 1-4.374 4.367zm0-5.657c-.712 0-1.291.578-1.291 1.29a1.292 1.292 0 0 0 2.582 0c0-.712-.579-1.29-1.29-1.29zm-17.716 5.657a4.376 4.376 0 0 1-4.374-4.367 4.376 4.376 0 0 1 4.374-4.368 4.376 4.376 0 0 1 4.373 4.368 4.376 4.376 0 0 1-4.373 4.367zm0-5.657c-.712 0-1.292.578-1.292 1.29a1.292 1.292 0 0 0 2.583 0c0-.712-.58-1.29-1.291-1.29zm-17.946 5.657a4.376 4.376 0 0 1-4.373-4.367 4.376 4.376 0 0 1 4.373-4.368 4.376 4.376 0 0 1 4.374 4.368 4.376 4.376 0 0 1-4.374 4.367zm0-5.657c-.711 0-1.29.578-1.29 1.29a1.292 1.292 0 0 0 2.582 0c0-.712-.58-1.29-1.292-1.29zm-79.15 12.097c-5.97 0-10.825-4.848-10.825-10.807 0-5.959 4.855-10.807 10.824-10.807 5.97 0 10.825 4.848 10.825 10.807 0 5.959-4.856 10.807-10.825 10.807zm0-16.998c-3.42 0-6.202 2.777-6.202 6.191 0 3.414 2.782 6.19 6.201 6.19 3.42 0 6.201-2.776 6.201-6.19 0-3.414-2.781-6.191-6.2-6.191zm0-44.745c5.968 0 10.824 4.848 10.824 10.807 0 5.959-4.856 10.807-10.825 10.807-5.969 0-10.824-4.848-10.824-10.807 0-5.959 4.855-10.807 10.824-10.807zm0 16.998c3.419 0 6.2-2.777 6.2-6.191 0-3.414-2.781-6.191-6.2-6.191-3.42 0-6.202 2.777-6.202 6.191 0 3.414 2.782 6.19 6.201 6.19zm79.15-10.559a4.376 4.376 0 0 1 4.374 4.368 4.376 4.376 0 0 1-4.374 4.367 4.376 4.376 0 0 1-4.373-4.367 4.376 4.376 0 0 1 4.373-4.368zm0 5.658c.712 0 1.292-.579 1.292-1.29a1.292 1.292 0 0 0-2.583 0c0 .711.58 1.29 1.291 1.29zm17.946-5.658a4.376 4.376 0 0 1 4.373 4.368 4.376 4.376 0 0 1-4.373 4.367 4.376 4.376 0 0 1-4.374-4.367 4.376 4.376 0 0 1 4.374-4.368zm0 5.658c.712 0 1.291-.579 1.291-1.29a1.292 1.292 0 0 0-2.583 0c0 .711.58 1.29 1.292 1.29zm17.716-5.658a4.376 4.376 0 0 1 4.374 4.368 4.376 4.376 0 0 1-4.374 4.367 4.376 4.376 0 0 1-4.374-4.367 4.376 4.376 0 0 1 4.374-4.368zm0 5.658c.712 0 1.291-.579 1.291-1.29a1.292 1.292 0 0 0-2.582 0c0 .711.58 1.29 1.291 1.29zm-134.335 93.122h9.76a2.31 2.31 0 0 1 2.312 2.309 2.31 2.31 0 0 1-2.312 2.308h-9.76a2.31 2.31 0 0 1-2.312-2.308 2.31 2.31 0 0 1 2.312-2.309zm17.725 0h9.76a2.31 2.31 0 0 1 2.312 2.309 2.31 2.31 0 0 1-2.311 2.308h-9.76a2.31 2.31 0 0 1-2.313-2.308 2.31 2.31 0 0 1 2.312-2.309zm109.94 0h9.76a2.31 2.31 0 0 1 2.312 2.309 2.31 2.31 0 0 1-2.312 2.308h-9.76a2.31 2.31 0 0 1-2.312-2.308 2.31 2.31 0 0 1 2.312-2.309zm16.696 0h9.76a2.31 2.31 0 0 1 2.312 2.309 2.31 2.31 0 0 1-2.312 2.308h-9.76a2.31 2.31 0 0 1-2.312-2.308 2.31 2.31 0 0 1 2.312-2.309z"/></defs><use fill="#fff" xlink:href="#a" transform="translate(-315 -1056)"/></symbol><symbol xmlns="http://www.w3.org/2000/svg" xmlns:xlink="http://www.w3.org/1999/xlink" viewBox="0 0 102 109" id="icon-triple"><defs><path id="a" d="M736.996 648.016c-5.602-1.5-8.94-7.276-7.44-12.872a10.432 10.432 0 0 1 2.033-3.948l-12.768-17.988a18.915 18.915 0 0 1-13.51 1.419 18.93 18.93 0 0 1-11.51-8.83l-23.77 9.429a10.44 10.44 0 0 1-.289 3.891c-1.5 5.597-7.276 8.929-12.879 7.428-5.602-1.501-8.94-7.276-7.44-12.872 1.5-5.597 7.277-8.93 12.88-7.428a10.47 10.47 0 0 1 5.68 3.843l23.77-9.427a18.83 18.83 0 0 1 .132-9.263c2.464-9.192 11.323-14.997 20.517-13.923l4.81-17.952c-3.994-2.33-6.115-7.125-4.863-11.798 1.5-5.597 7.278-8.929 12.88-7.427 5.602 1.5 8.94 7.275 7.44 12.872-1.252 4.672-5.487 7.764-10.11 7.785l-4.811 17.953c8.5 3.668 13.269 13.123 10.806 22.316a18.834 18.834 0 0 1-5.216 8.791l12.767 17.986c1.964-.72 4.16-.866 6.33-.285 5.602 1.501 8.939 7.276 7.44 12.872-1.5 5.597-7.278 8.93-12.879 7.428zm-76.124-36.43a4.987 4.987 0 0 0-6.103 3.519 4.987 4.987 0 0 0 3.525 6.1 4.987 4.987 0 0 0 6.103-3.52 4.987 4.987 0 0 0-3.525-6.1zm66.451-59.849a4.987 4.987 0 0 0-3.525-6.099 4.988 4.988 0 0 0-6.104 3.52 4.988 4.988 0 0 0 3.526 6.1 4.987 4.987 0 0 0 6.103-3.52zm-13.627 31.598c-7.161-1.919-14.548 2.34-16.465 9.496-1.917 7.154 2.35 14.536 9.511 16.455 7.163 1.92 14.549-2.34 16.466-9.495 1.917-7.155-2.35-14.537-9.512-16.456zm27.308 49.722a4.988 4.988 0 0 0-6.103 3.52 4.988 4.988 0 0 0 3.526 6.099 4.987 4.987 0 0 0 6.102-3.52 4.987 4.987 0 0 0-3.525-6.1z"/></defs><use fill="#fff" xlink:href="#a" transform="translate(-649 -540)"/></symbol></svg>