<svg xmlns="http://www.w3.org/2000/svg" xmlns:xlink="http://www.w3.org/1999/xlink" width="168" height="169" viewBox="0 0 168 169"><defs><path id="ucu0a" d="M462.96 1189.868h-61.648v30.518h39.308a2.31 2.31 0 0 1 2.312 2.309 2.31 2.31 0 0 1-2.312 2.308h-83.24a2.31 2.31 0 0 1-2.312-2.308 2.31 2.31 0 0 1 2.312-2.309h39.308v-30.518H335.04c-11.048 0-20.036-8.973-20.036-20.004V1107.2c0-.171.01-.34.029-.507.005-.043.014-.085.02-.129.017-.124.037-.248.064-.37.011-.05.026-.098.038-.148a4.63 4.63 0 0 1 .156-.49c.04-.107.085-.21.134-.313.014-.03.024-.062.039-.093l23.118-46.586a4.626 4.626 0 0 1 4.144-2.567h112.508c1.758 0 3.363.995 4.144 2.567l23.118 46.586c.015.03.025.062.04.093a4.579 4.579 0 0 1 .289.803c.012.05.027.099.038.148.027.122.047.246.064.37.006.043.015.086.02.13.018.166.03.335.03.506v62.664c0 11.03-8.99 20.004-20.037 20.004zm-10.574-124.638H345.614l-18.536 37.354h143.844zm21.363 46.586H324.25v29.882H473.75zm0 39.114H324.25v18.934c0 5.94 4.84 10.771 10.789 10.771h127.92c5.949 0 10.789-4.832 10.789-10.771zm-18.245 19.54a4.376 4.376 0 0 1-4.374-4.367 4.376 4.376 0 0 1 4.374-4.368 4.376 4.376 0 0 1 4.374 4.368 4.376 4.376 0 0 1-4.374 4.367zm0-5.657c-.712 0-1.291.578-1.291 1.29a1.292 1.292 0 0 0 2.582 0c0-.712-.579-1.29-1.29-1.29zm-17.716 5.657a4.376 4.376 0 0 1-4.374-4.367 4.376 4.376 0 0 1 4.374-4.368 4.376 4.376 0 0 1 4.373 4.368 4.376 4.376 0 0 1-4.373 4.367zm0-5.657c-.712 0-1.292.578-1.292 1.29a1.292 1.292 0 0 0 2.583 0c0-.712-.58-1.29-1.291-1.29zm-17.946 5.657a4.376 4.376 0 0 1-4.373-4.367 4.376 4.376 0 0 1 4.373-4.368 4.376 4.376 0 0 1 4.374 4.368 4.376 4.376 0 0 1-4.374 4.367zm0-5.657c-.711 0-1.29.578-1.29 1.29a1.292 1.292 0 0 0 2.582 0c0-.712-.58-1.29-1.292-1.29zm-79.15 12.097c-5.97 0-10.825-4.848-10.825-10.807 0-5.959 4.855-10.807 10.824-10.807 5.97 0 10.825 4.848 10.825 10.807 0 5.959-4.856 10.807-10.825 10.807zm0-16.998c-3.42 0-6.202 2.777-6.202 6.191 0 3.414 2.782 6.19 6.201 6.19 3.42 0 6.201-2.776 6.201-6.19 0-3.414-2.781-6.191-6.2-6.191zm0-44.745c5.968 0 10.824 4.848 10.824 10.807 0 5.959-4.856 10.807-10.825 10.807-5.969 0-10.824-4.848-10.824-10.807 0-5.959 4.855-10.807 10.824-10.807zm0 16.998c3.419 0 6.2-2.777 6.2-6.191 0-3.414-2.781-6.191-6.2-6.191-3.42 0-6.202 2.777-6.202 6.191 0 3.414 2.782 6.19 6.201 6.19zm79.15-10.559a4.376 4.376 0 0 1 4.374 4.368 4.376 4.376 0 0 1-4.374 4.367 4.376 4.376 0 0 1-4.373-4.367 4.376 4.376 0 0 1 4.373-4.368zm0 5.658c.712 0 1.292-.579 1.292-1.29a1.292 1.292 0 0 0-2.583 0c0 .711.58 1.29 1.291 1.29zm17.946-5.658a4.376 4.376 0 0 1 4.373 4.368 4.376 4.376 0 0 1-4.373 4.367 4.376 4.376 0 0 1-4.374-4.367 4.376 4.376 0 0 1 4.374-4.368zm0 5.658c.712 0 1.291-.579 1.291-1.29a1.292 1.292 0 0 0-2.583 0c0 .711.58 1.29 1.292 1.29zm17.716-5.658a4.376 4.376 0 0 1 4.374 4.368 4.376 4.376 0 0 1-4.374 4.367 4.376 4.376 0 0 1-4.374-4.367 4.376 4.376 0 0 1 4.374-4.368zm0 5.658c.712 0 1.291-.579 1.291-1.29a1.292 1.292 0 0 0-2.582 0c0 .711.58 1.29 1.291 1.29zm-134.335 93.122h9.76a2.31 2.31 0 0 1 2.312 2.309 2.31 2.31 0 0 1-2.312 2.308h-9.76a2.31 2.31 0 0 1-2.312-2.308 2.31 2.31 0 0 1 2.312-2.309zm17.725 0h9.76a2.31 2.31 0 0 1 2.312 2.309 2.31 2.31 0 0 1-2.311 2.308h-9.76a2.31 2.31 0 0 1-2.313-2.308 2.31 2.31 0 0 1 2.312-2.309zm109.94 0h9.76a2.31 2.31 0 0 1 2.312 2.309 2.31 2.31 0 0 1-2.312 2.308h-9.76a2.31 2.31 0 0 1-2.312-2.308 2.31 2.31 0 0 1 2.312-2.309zm16.696 0h9.76a2.31 2.31 0 0 1 2.312 2.309 2.31 2.31 0 0 1-2.312 2.308h-9.76a2.31 2.31 0 0 1-2.312-2.308 2.31 2.31 0 0 1 2.312-2.309z"/></defs><g><g transform="translate(-315 -1056)"><use fill="#fff" xlink:href="#ucu0a"/></g></g></svg>