<svg xmlns="http://www.w3.org/2000/svg" xmlns:xlink="http://www.w3.org/1999/xlink" width="26" height="32" viewBox="0 0 26 32"><defs><path id="yghfa" d="M138.805 90h-19.61c-1.762 0-3.195-1.419-3.195-3.163V65.439c0-.135.033-.267.097-.386l3.544-6.616a.833.833 0 0 1 .735-.438h17.248c.308 0 .59.168.735.438l3.544 6.616a.818.818 0 0 1 .097.386v21.398c0 1.744-1.433 3.164-3.195 3.164zm-1.682-30.353h-16.246l-2.738 5.112h21.722zm3.213 6.76h-22.672v4.157h22.672zm0 5.805h-22.672v4.272h22.672zm0 5.92h-22.672v4.3h22.672zm0 5.948h-22.672v2.757c0 .835.687 1.515 1.53 1.515h19.611c.844 0 1.53-.68 1.53-1.515zm-2.674 2.89a.71.71 0 0 1-.712-.705c0-.389.32-.705.712-.705.393 0 .712.316.712.705 0 .388-.32.705-.712.705zm0-.86a.156.156 0 0 0-.157.155c0 .085.07.155.157.155s.157-.07.157-.155a.156.156 0 0 0-.157-.156zm-2.716.86a.709.709 0 0 1-.711-.705c0-.389.319-.705.711-.705a.71.71 0 0 1 .712.705c0 .388-.32.705-.712.705zm0-.86a.156.156 0 0 0-.157.155c0 .085.07.155.157.155s.157-.07.157-.155a.156.156 0 0 0-.157-.156zm-2.751.86a.709.709 0 0 1-.711-.705c0-.389.319-.705.711-.705.393 0 .712.316.712.705 0 .388-.32.705-.712.705zm0-.86a.156.156 0 0 0-.157.155c0 .085.07.155.157.155.086 0 .157-.07.157-.155a.156.156 0 0 0-.157-.156zm-12.134 1.86a1.715 1.715 0 0 1-1.721-1.705c0-.94.772-1.705 1.721-1.705.95 0 1.721.765 1.721 1.705 0 .94-.772 1.704-1.72 1.704zm0-2.586a.886.886 0 0 0-.889.88c0 .486.399.881.89.881.49 0 .888-.395.888-.88a.886.886 0 0 0-.889-.88zm0-6.926c.95 0 1.721.765 1.721 1.705 0 .94-.772 1.704-1.72 1.704a1.715 1.715 0 0 1-1.722-1.704c0-.94.772-1.705 1.721-1.705zm0 2.585c.49 0 .889-.395.889-.88a.886.886 0 0 0-.889-.88.886.886 0 0 0-.889.88c0 .485.399.88.89.88zm12.134-1.585c.393 0 .712.316.712.705 0 .388-.32.705-.712.705a.709.709 0 0 1-.711-.705c0-.389.319-.705.711-.705zm0 .86c.086 0 .157-.07.157-.155a.156.156 0 0 0-.157-.156.156.156 0 0 0-.157.156c0 .086.07.155.157.155zm2.751-.86a.71.71 0 0 1 .712.705c0 .388-.32.705-.712.705a.709.709 0 0 1-.711-.705c0-.389.319-.705.711-.705zm0 .86c.087 0 .157-.07.157-.155a.156.156 0 0 0-.157-.156.156.156 0 0 0-.157.156c0 .086.07.155.157.155zm2.716-.86c.393 0 .712.316.712.705 0 .388-.32.705-.712.705a.71.71 0 0 1-.712-.705c0-.389.32-.705.712-.705zm0 .86c.087 0 .157-.07.157-.155a.156.156 0 0 0-.157-.156.156.156 0 0 0-.157.156c0 .086.07.155.157.155zm-17.6-7.621c.948 0 1.72.765 1.72 1.705 0 .94-.772 1.704-1.72 1.704a1.715 1.715 0 0 1-1.722-1.704c0-.94.772-1.705 1.721-1.705zm0 2.585c.49 0 .888-.395.888-.88a.886.886 0 0 0-.889-.88.886.886 0 0 0-.889.88c0 .485.399.88.89.88zm12.133-1.585c.393 0 .712.316.712.705 0 .388-.32.704-.712.704a.709.709 0 0 1-.711-.704c0-.39.319-.705.711-.705zm0 .86c.086 0 .157-.07.157-.155a.156.156 0 0 0-.157-.156.156.156 0 0 0-.157.156c0 .085.07.155.157.155zm2.751-.86a.71.71 0 0 1 .712.705c0 .388-.32.704-.712.704a.709.709 0 0 1-.711-.704c0-.39.319-.705.711-.705zm0 .86c.087 0 .157-.07.157-.155a.156.156 0 0 0-.157-.156.156.156 0 0 0-.157.156c0 .085.07.155.157.155zm2.716-.86c.393 0 .712.316.712.705 0 .388-.32.704-.712.704a.71.71 0 0 1-.712-.704c0-.39.32-.705.712-.705zm0 .86c.087 0 .157-.07.157-.155a.156.156 0 0 0-.157-.156.156.156 0 0 0-.157.156c0 .085.07.155.157.155zm-17.6-7.728c.948 0 1.72.764 1.72 1.704s-.772 1.705-1.72 1.705a1.715 1.715 0 0 1-1.722-1.705c0-.94.772-1.704 1.721-1.704zm0 2.585c.49 0 .888-.395.888-.88a.886.886 0 0 0-.889-.881.886.886 0 0 0-.889.88c0 .486.399.88.89.88zm12.133-1.585c.393 0 .712.316.712.704 0 .39-.32.705-.712.705a.709.709 0 0 1-.711-.705c0-.388.319-.704.711-.704zm0 .86c.086 0 .157-.07.157-.156a.156.156 0 0 0-.157-.155.156.156 0 0 0-.157.155c0 .086.07.156.157.156zm2.751-.86a.71.71 0 0 1 .712.704c0 .39-.32.705-.712.705a.709.709 0 0 1-.711-.705c0-.388.319-.704.711-.704zm0 .86c.087 0 .157-.07.157-.156a.156.156 0 0 0-.157-.155.156.156 0 0 0-.157.155c0 .086.07.156.157.156zm2.716-.86c.393 0 .712.316.712.704 0 .39-.32.705-.712.705a.71.71 0 0 1-.712-.705c0-.388.32-.704.712-.704zm0 .86c.087 0 .157-.07.157-.156a.156.156 0 0 0-.157-.155.156.156 0 0 0-.157.155c0 .086.07.156.157.156z"/><clipPath id="yghfb"><use fill="#fff" xlink:href="#yghfa"/></clipPath></defs><g><g transform="translate(-116 -58)"><use fill="#fff" fill-opacity="0" stroke="#202242" stroke-miterlimit="50" stroke-width="5.3" clip-path="url(&quot;#yghfb&quot;)" xlink:href="#yghfa"/></g></g></svg>