<svg xmlns="http://www.w3.org/2000/svg" xmlns:xlink="http://www.w3.org/1999/xlink" width="102" height="109" viewBox="0 0 102 109"><defs><path id="1nqca" d="M736.996 648.016c-5.602-1.5-8.94-7.276-7.44-12.872a10.432 10.432 0 0 1 2.033-3.948l-12.768-17.988a18.915 18.915 0 0 1-13.51 1.419 18.93 18.93 0 0 1-11.51-8.83l-23.77 9.429a10.44 10.44 0 0 1-.289 3.891c-1.5 5.597-7.276 8.929-12.879 7.428-5.602-1.501-8.94-7.276-7.44-12.872 1.5-5.597 7.277-8.93 12.88-7.428a10.47 10.47 0 0 1 5.68 3.843l23.77-9.427a18.83 18.83 0 0 1 .132-9.263c2.464-9.192 11.323-14.997 20.517-13.923l4.81-17.952c-3.994-2.33-6.115-7.125-4.863-11.798 1.5-5.597 7.278-8.929 12.88-7.427 5.602 1.5 8.94 7.275 7.44 12.872-1.252 4.672-5.487 7.764-10.11 7.785l-4.811 17.953c8.5 3.668 13.269 13.123 10.806 22.316a18.834 18.834 0 0 1-5.216 8.791l12.767 17.986c1.964-.72 4.16-.866 6.33-.285 5.602 1.501 8.939 7.276 7.44 12.872-1.5 5.597-7.278 8.93-12.879 7.428zm-76.124-36.43a4.987 4.987 0 0 0-6.103 3.519 4.987 4.987 0 0 0 3.525 6.1 4.987 4.987 0 0 0 6.103-3.52 4.987 4.987 0 0 0-3.525-6.1zm66.451-59.849a4.987 4.987 0 0 0-3.525-6.099 4.988 4.988 0 0 0-6.104 3.52 4.988 4.988 0 0 0 3.526 6.1 4.987 4.987 0 0 0 6.103-3.52zm-13.627 31.598c-7.161-1.919-14.548 2.34-16.465 9.496-1.917 7.154 2.35 14.536 9.511 16.455 7.163 1.92 14.549-2.34 16.466-9.495 1.917-7.155-2.35-14.537-9.512-16.456zm27.308 49.722a4.988 4.988 0 0 0-6.103 3.52 4.988 4.988 0 0 0 3.526 6.099 4.987 4.987 0 0 0 6.102-3.52 4.987 4.987 0 0 0-3.525-6.1z"/></defs><g><g transform="translate(-649 -540)"><use fill="#fff" xlink:href="#1nqca"/></g></g></svg>